<mxfile host="app.diagrams.net" modified="2024-06-09T13:53:35.695Z" agent="Mozilla/5.0 (Windows NT 10.0; Win64; x64) AppleWebKit/537.36 (KHTML, like Gecko) Chrome/124.0.0.0 Safari/537.36" etag="pzAexGfbR1g3EWtopzmd" version="24.5.2" type="device">
  <diagram id="R2lEEEUBdFMjLlhIrx00" name="Page-1">
    <mxGraphModel dx="7086" dy="2614" grid="1" gridSize="10" guides="1" tooltips="1" connect="1" arrows="1" fold="1" page="1" pageScale="1" pageWidth="850" pageHeight="1100" math="0" shadow="0" extFonts="Permanent Marker^https://fonts.googleapis.com/css?family=Permanent+Marker">
      <root>
        <mxCell id="0" />
        <mxCell id="1" parent="0" />
        <mxCell id="ZiRbrHKVVSvvuvjTJfd7-6" value="Reason" style="ellipse;whiteSpace=wrap;html=1;" parent="1" vertex="1">
          <mxGeometry x="-1760" y="1670" width="80" height="50" as="geometry" />
        </mxCell>
        <mxCell id="ZiRbrHKVVSvvuvjTJfd7-7" value="&lt;font style=&quot;font-size: 11px;&quot;&gt;&lt;u&gt;Cancellation_id&lt;/u&gt;&lt;/font&gt;" style="ellipse;whiteSpace=wrap;html=1;fillColor=#dae8fc;gradientColor=#7ea6e0;strokeColor=#6c8ebf;" parent="1" vertex="1">
          <mxGeometry x="-1850" y="1630" width="80" height="50" as="geometry" />
        </mxCell>
        <mxCell id="ZiRbrHKVVSvvuvjTJfd7-8" value="&lt;font style=&quot;font-size: 9px;&quot;&gt;Cancellatioan_date&lt;/font&gt;" style="ellipse;whiteSpace=wrap;html=1;" parent="1" vertex="1">
          <mxGeometry x="-1680" y="1640" width="80" height="50" as="geometry" />
        </mxCell>
        <mxCell id="ZiRbrHKVVSvvuvjTJfd7-9" value="&lt;font style=&quot;font-size: 10px;&quot;&gt;Refund_amount&lt;/font&gt;" style="ellipse;whiteSpace=wrap;html=1;" parent="1" vertex="1">
          <mxGeometry x="-1600" y="1610" width="80" height="50" as="geometry" />
        </mxCell>
        <mxCell id="ZiRbrHKVVSvvuvjTJfd7-10" value="RESERVATION CANCELLATION" style="rounded=1;whiteSpace=wrap;html=1;" parent="1" vertex="1">
          <mxGeometry x="-1780" y="1440" width="120" height="60" as="geometry" />
        </mxCell>
        <mxCell id="ZiRbrHKVVSvvuvjTJfd7-17" value="Rating" style="ellipse;whiteSpace=wrap;html=1;" parent="1" vertex="1">
          <mxGeometry x="-2260" y="1630" width="80" height="50" as="geometry" />
        </mxCell>
        <mxCell id="ZiRbrHKVVSvvuvjTJfd7-18" value="Subject" style="ellipse;whiteSpace=wrap;html=1;" parent="1" vertex="1">
          <mxGeometry x="-2360" y="1630" width="80" height="50" as="geometry" />
        </mxCell>
        <mxCell id="ZiRbrHKVVSvvuvjTJfd7-19" value="&lt;u&gt;Feddback_id&lt;/u&gt;" style="ellipse;whiteSpace=wrap;html=1;fillColor=#dae8fc;gradientColor=#7ea6e0;strokeColor=#6c8ebf;" parent="1" vertex="1">
          <mxGeometry x="-2450" y="1590" width="80" height="50" as="geometry" />
        </mxCell>
        <mxCell id="ZiRbrHKVVSvvuvjTJfd7-20" value="&lt;font style=&quot;font-size: 10px;&quot;&gt;Submission_date&lt;/font&gt;" style="ellipse;whiteSpace=wrap;html=1;" parent="1" vertex="1">
          <mxGeometry x="-2180" y="1600" width="80" height="50" as="geometry" />
        </mxCell>
        <mxCell id="ZiRbrHKVVSvvuvjTJfd7-21" value="comment" style="ellipse;whiteSpace=wrap;html=1;" parent="1" vertex="1">
          <mxGeometry x="-2090" y="1570" width="80" height="50" as="geometry" />
        </mxCell>
        <mxCell id="ZiRbrHKVVSvvuvjTJfd7-22" value="FEEDBACK" style="rounded=1;whiteSpace=wrap;html=1;" parent="1" vertex="1">
          <mxGeometry x="-2320" y="1430" width="120" height="60" as="geometry" />
        </mxCell>
        <mxCell id="ZiRbrHKVVSvvuvjTJfd7-23" value="Schedule" style="ellipse;whiteSpace=wrap;html=1;" parent="1" vertex="1">
          <mxGeometry x="10" y="-510" width="80" height="50" as="geometry" />
        </mxCell>
        <mxCell id="ZiRbrHKVVSvvuvjTJfd7-24" value="Type" style="ellipse;whiteSpace=wrap;html=1;" parent="1" vertex="1">
          <mxGeometry x="-90" y="-510" width="80" height="50" as="geometry" />
        </mxCell>
        <mxCell id="ZiRbrHKVVSvvuvjTJfd7-26" value="&lt;u&gt;Transport_id&lt;/u&gt;" style="ellipse;whiteSpace=wrap;html=1;fillColor=#dae8fc;gradientColor=#7ea6e0;strokeColor=#6c8ebf;" parent="1" vertex="1">
          <mxGeometry x="-170" y="-480" width="80" height="50" as="geometry" />
        </mxCell>
        <mxCell id="ZiRbrHKVVSvvuvjTJfd7-27" value="Price" style="ellipse;whiteSpace=wrap;html=1;" parent="1" vertex="1">
          <mxGeometry x="95" y="-480" width="80" height="50" as="geometry" />
        </mxCell>
        <mxCell id="ZiRbrHKVVSvvuvjTJfd7-28" value="Contact_info" style="ellipse;whiteSpace=wrap;html=1;" parent="1" vertex="1">
          <mxGeometry x="155" y="-430" width="80" height="50" as="geometry" />
        </mxCell>
        <mxCell id="ZiRbrHKVVSvvuvjTJfd7-29" value="TRANSPORTATION" style="rounded=1;whiteSpace=wrap;html=1;" parent="1" vertex="1">
          <mxGeometry x="-55" y="-350" width="120" height="60" as="geometry" />
        </mxCell>
        <mxCell id="ZiRbrHKVVSvvuvjTJfd7-37" value="Description" style="ellipse;whiteSpace=wrap;html=1;" parent="1" vertex="1">
          <mxGeometry x="650" y="-110" width="80" height="50" as="geometry" />
        </mxCell>
        <mxCell id="ZiRbrHKVVSvvuvjTJfd7-38" value="Name" style="ellipse;whiteSpace=wrap;html=1;" parent="1" vertex="1">
          <mxGeometry x="515" y="-110" width="80" height="50" as="geometry" />
        </mxCell>
        <mxCell id="ZiRbrHKVVSvvuvjTJfd7-40" value="Event_id" style="ellipse;whiteSpace=wrap;html=1;fillColor=#dae8fc;gradientColor=#7ea6e0;strokeColor=#6c8ebf;" parent="1" vertex="1">
          <mxGeometry x="415" y="-86" width="80" height="50" as="geometry" />
        </mxCell>
        <mxCell id="ZiRbrHKVVSvvuvjTJfd7-41" value="Start_date" style="ellipse;whiteSpace=wrap;html=1;" parent="1" vertex="1">
          <mxGeometry x="730" y="-80" width="80" height="50" as="geometry" />
        </mxCell>
        <mxCell id="ZiRbrHKVVSvvuvjTJfd7-42" value="End_date" style="ellipse;whiteSpace=wrap;html=1;" parent="1" vertex="1">
          <mxGeometry x="800" y="-40" width="80" height="50" as="geometry" />
        </mxCell>
        <mxCell id="ZiRbrHKVVSvvuvjTJfd7-43" value="EVENT" style="rounded=1;whiteSpace=wrap;html=1;" parent="1" vertex="1">
          <mxGeometry x="560" y="40" width="120" height="60" as="geometry" />
        </mxCell>
        <mxCell id="ZiRbrHKVVSvvuvjTJfd7-44" value="description" style="ellipse;whiteSpace=wrap;html=1;" parent="1" vertex="1">
          <mxGeometry x="-930" y="-640" width="80" height="50" as="geometry" />
        </mxCell>
        <mxCell id="ZiRbrHKVVSvvuvjTJfd7-45" value="Name" style="ellipse;whiteSpace=wrap;html=1;" parent="1" vertex="1">
          <mxGeometry x="-1040" y="-700" width="80" height="50" as="geometry" />
        </mxCell>
        <mxCell id="ZiRbrHKVVSvvuvjTJfd7-46" value="&lt;u&gt;Amenity_id&lt;/u&gt;" style="ellipse;whiteSpace=wrap;html=1;fillColor=#dae8fc;strokeColor=#6c8ebf;gradientColor=#7ea6e0;" parent="1" vertex="1">
          <mxGeometry x="-1130" y="-640" width="80" height="50" as="geometry" />
        </mxCell>
        <mxCell id="ZiRbrHKVVSvvuvjTJfd7-47" style="rounded=0;orthogonalLoop=1;jettySize=auto;html=1;exitX=0.5;exitY=0;exitDx=0;exitDy=0;endArrow=none;endFill=0;fillColor=#eeeeee;strokeColor=#36393d;entryX=0.5;entryY=1;entryDx=0;entryDy=0;" parent="1" source="ZiRbrHKVVSvvuvjTJfd7-48" target="ZiRbrHKVVSvvuvjTJfd7-46" edge="1">
          <mxGeometry relative="1" as="geometry">
            <mxPoint x="-1090" y="-630" as="targetPoint" />
          </mxGeometry>
        </mxCell>
        <mxCell id="ZiRbrHKVVSvvuvjTJfd7-48" value="AMENITY" style="rounded=1;whiteSpace=wrap;html=1;" parent="1" vertex="1">
          <mxGeometry x="-1060" y="-460" width="120" height="60" as="geometry" />
        </mxCell>
        <mxCell id="ZiRbrHKVVSvvuvjTJfd7-49" value="INVOICE" style="rounded=1;whiteSpace=wrap;html=1;" parent="1" vertex="1">
          <mxGeometry x="-900" y="2280" width="120" height="60" as="geometry" />
        </mxCell>
        <mxCell id="ZiRbrHKVVSvvuvjTJfd7-51" value="Issue_date" style="ellipse;whiteSpace=wrap;html=1;" parent="1" vertex="1">
          <mxGeometry x="-1220" y="2320" width="80" height="50" as="geometry" />
        </mxCell>
        <mxCell id="ZiRbrHKVVSvvuvjTJfd7-52" value="Due_date" style="ellipse;whiteSpace=wrap;html=1;" parent="1" vertex="1">
          <mxGeometry x="-1170" y="2375" width="80" height="50" as="geometry" />
        </mxCell>
        <mxCell id="ZiRbrHKVVSvvuvjTJfd7-53" value="Status" style="ellipse;whiteSpace=wrap;html=1;" parent="1" vertex="1">
          <mxGeometry x="-1100" y="2425" width="80" height="50" as="geometry" />
        </mxCell>
        <mxCell id="ZiRbrHKVVSvvuvjTJfd7-54" value="Amount" style="ellipse;whiteSpace=wrap;html=1;" parent="1" vertex="1">
          <mxGeometry x="-1220" y="2250" width="80" height="50" as="geometry" />
        </mxCell>
        <mxCell id="ZiRbrHKVVSvvuvjTJfd7-55" value="&lt;u&gt;Invoice_id&lt;/u&gt;" style="ellipse;whiteSpace=wrap;html=1;fillColor=#dae8fc;gradientColor=#7ea6e0;strokeColor=#6c8ebf;" parent="1" vertex="1">
          <mxGeometry x="-1210" y="2180" width="80" height="50" as="geometry" />
        </mxCell>
        <mxCell id="ZiRbrHKVVSvvuvjTJfd7-63" style="rounded=0;orthogonalLoop=1;jettySize=auto;html=1;endArrow=none;endFill=0;fillColor=#eeeeee;strokeColor=#36393d;entryX=0.5;entryY=1;entryDx=0;entryDy=0;" parent="1" target="ZiRbrHKVVSvvuvjTJfd7-45" edge="1">
          <mxGeometry relative="1" as="geometry">
            <mxPoint x="-1000" y="-460" as="sourcePoint" />
            <mxPoint x="-1000" y="-640" as="targetPoint" />
          </mxGeometry>
        </mxCell>
        <mxCell id="ZiRbrHKVVSvvuvjTJfd7-64" style="rounded=0;orthogonalLoop=1;jettySize=auto;html=1;exitX=0.5;exitY=0;exitDx=0;exitDy=0;entryX=0.5;entryY=1;entryDx=0;entryDy=0;endArrow=none;endFill=0;fillColor=#eeeeee;strokeColor=#36393d;" parent="1" source="ZiRbrHKVVSvvuvjTJfd7-48" target="ZiRbrHKVVSvvuvjTJfd7-44" edge="1">
          <mxGeometry relative="1" as="geometry">
            <mxPoint x="-980" y="-380" as="sourcePoint" />
            <mxPoint x="-1080" y="-260" as="targetPoint" />
          </mxGeometry>
        </mxCell>
        <mxCell id="ZiRbrHKVVSvvuvjTJfd7-73" style="rounded=0;orthogonalLoop=1;jettySize=auto;html=1;exitX=0.5;exitY=1;exitDx=0;exitDy=0;entryX=0.5;entryY=0;entryDx=0;entryDy=0;endArrow=none;endFill=0;fillColor=#eeeeee;strokeColor=#36393d;" parent="1" source="ZiRbrHKVVSvvuvjTJfd7-10" target="ZiRbrHKVVSvvuvjTJfd7-7" edge="1">
          <mxGeometry relative="1" as="geometry">
            <mxPoint x="-1740" y="1510" as="sourcePoint" />
            <mxPoint x="-1950" y="1590" as="targetPoint" />
          </mxGeometry>
        </mxCell>
        <mxCell id="ZiRbrHKVVSvvuvjTJfd7-75" style="rounded=0;orthogonalLoop=1;jettySize=auto;html=1;exitX=0.5;exitY=1;exitDx=0;exitDy=0;entryX=0.5;entryY=0;entryDx=0;entryDy=0;endArrow=none;endFill=0;fillColor=#eeeeee;strokeColor=#36393d;" parent="1" source="ZiRbrHKVVSvvuvjTJfd7-10" target="ZiRbrHKVVSvvuvjTJfd7-6" edge="1">
          <mxGeometry relative="1" as="geometry">
            <mxPoint x="-1710" y="1510" as="sourcePoint" />
            <mxPoint x="-1790" y="1650" as="targetPoint" />
          </mxGeometry>
        </mxCell>
        <mxCell id="ZiRbrHKVVSvvuvjTJfd7-76" style="rounded=0;orthogonalLoop=1;jettySize=auto;html=1;exitX=0.5;exitY=1;exitDx=0;exitDy=0;entryX=0.5;entryY=0;entryDx=0;entryDy=0;endArrow=none;endFill=0;fillColor=#eeeeee;strokeColor=#36393d;" parent="1" source="ZiRbrHKVVSvvuvjTJfd7-10" target="ZiRbrHKVVSvvuvjTJfd7-8" edge="1">
          <mxGeometry relative="1" as="geometry">
            <mxPoint x="-1710" y="1510" as="sourcePoint" />
            <mxPoint x="-1710" y="1680" as="targetPoint" />
          </mxGeometry>
        </mxCell>
        <mxCell id="ZiRbrHKVVSvvuvjTJfd7-77" style="rounded=0;orthogonalLoop=1;jettySize=auto;html=1;exitX=0.5;exitY=1;exitDx=0;exitDy=0;entryX=0.5;entryY=0;entryDx=0;entryDy=0;endArrow=none;endFill=0;fillColor=#eeeeee;strokeColor=#36393d;" parent="1" source="ZiRbrHKVVSvvuvjTJfd7-10" target="ZiRbrHKVVSvvuvjTJfd7-9" edge="1">
          <mxGeometry relative="1" as="geometry">
            <mxPoint x="-1710" y="1510" as="sourcePoint" />
            <mxPoint x="-1630" y="1650" as="targetPoint" />
          </mxGeometry>
        </mxCell>
        <mxCell id="ZiRbrHKVVSvvuvjTJfd7-83" style="rounded=0;orthogonalLoop=1;jettySize=auto;html=1;exitX=0.5;exitY=1;exitDx=0;exitDy=0;entryX=0.5;entryY=0;entryDx=0;entryDy=0;endArrow=none;endFill=0;fillColor=#eeeeee;strokeColor=#36393d;" parent="1" source="ZiRbrHKVVSvvuvjTJfd7-22" target="ZiRbrHKVVSvvuvjTJfd7-19" edge="1">
          <mxGeometry relative="1" as="geometry">
            <mxPoint x="-2305" y="1520" as="sourcePoint" />
            <mxPoint x="-2350" y="1570" as="targetPoint" />
          </mxGeometry>
        </mxCell>
        <mxCell id="ZiRbrHKVVSvvuvjTJfd7-85" style="rounded=0;orthogonalLoop=1;jettySize=auto;html=1;exitX=0.5;exitY=1;exitDx=0;exitDy=0;entryX=0.5;entryY=0;entryDx=0;entryDy=0;endArrow=none;endFill=0;fillColor=#eeeeee;strokeColor=#36393d;" parent="1" source="ZiRbrHKVVSvvuvjTJfd7-22" target="ZiRbrHKVVSvvuvjTJfd7-18" edge="1">
          <mxGeometry relative="1" as="geometry">
            <mxPoint x="-2250" y="1500" as="sourcePoint" />
            <mxPoint x="-2380" y="1610" as="targetPoint" />
          </mxGeometry>
        </mxCell>
        <mxCell id="ZiRbrHKVVSvvuvjTJfd7-86" style="rounded=0;orthogonalLoop=1;jettySize=auto;html=1;exitX=0.5;exitY=1;exitDx=0;exitDy=0;entryX=0.5;entryY=0;entryDx=0;entryDy=0;endArrow=none;endFill=0;fillColor=#eeeeee;strokeColor=#36393d;" parent="1" source="ZiRbrHKVVSvvuvjTJfd7-22" target="ZiRbrHKVVSvvuvjTJfd7-17" edge="1">
          <mxGeometry relative="1" as="geometry">
            <mxPoint x="-2250" y="1500" as="sourcePoint" />
            <mxPoint x="-2300" y="1640" as="targetPoint" />
          </mxGeometry>
        </mxCell>
        <mxCell id="ZiRbrHKVVSvvuvjTJfd7-87" style="rounded=0;orthogonalLoop=1;jettySize=auto;html=1;exitX=0.5;exitY=1;exitDx=0;exitDy=0;entryX=0.5;entryY=0;entryDx=0;entryDy=0;endArrow=none;endFill=0;fillColor=#eeeeee;strokeColor=#36393d;" parent="1" source="ZiRbrHKVVSvvuvjTJfd7-22" target="ZiRbrHKVVSvvuvjTJfd7-20" edge="1">
          <mxGeometry relative="1" as="geometry">
            <mxPoint x="-2250" y="1500" as="sourcePoint" />
            <mxPoint x="-2210" y="1640" as="targetPoint" />
          </mxGeometry>
        </mxCell>
        <mxCell id="ZiRbrHKVVSvvuvjTJfd7-88" style="rounded=0;orthogonalLoop=1;jettySize=auto;html=1;exitX=0.5;exitY=1;exitDx=0;exitDy=0;entryX=0.5;entryY=0;entryDx=0;entryDy=0;endArrow=none;endFill=0;fillColor=#eeeeee;strokeColor=#36393d;" parent="1" source="ZiRbrHKVVSvvuvjTJfd7-22" target="ZiRbrHKVVSvvuvjTJfd7-21" edge="1">
          <mxGeometry relative="1" as="geometry">
            <mxPoint x="-2250" y="1500" as="sourcePoint" />
            <mxPoint x="-2130" y="1610" as="targetPoint" />
          </mxGeometry>
        </mxCell>
        <mxCell id="ZiRbrHKVVSvvuvjTJfd7-90" style="rounded=0;orthogonalLoop=1;jettySize=auto;html=1;exitX=0;exitY=0.5;exitDx=0;exitDy=0;entryX=1;entryY=0.5;entryDx=0;entryDy=0;endArrow=none;endFill=0;fillColor=#eeeeee;strokeColor=#36393d;" parent="1" source="ZiRbrHKVVSvvuvjTJfd7-49" target="ZiRbrHKVVSvvuvjTJfd7-54" edge="1">
          <mxGeometry relative="1" as="geometry">
            <mxPoint x="-980" y="2310" as="sourcePoint" />
            <mxPoint x="-1010" y="2450" as="targetPoint" />
          </mxGeometry>
        </mxCell>
        <mxCell id="ZiRbrHKVVSvvuvjTJfd7-91" style="rounded=0;orthogonalLoop=1;jettySize=auto;html=1;exitX=0;exitY=0.5;exitDx=0;exitDy=0;entryX=1;entryY=0.5;entryDx=0;entryDy=0;endArrow=none;endFill=0;fillColor=#eeeeee;strokeColor=#36393d;" parent="1" source="ZiRbrHKVVSvvuvjTJfd7-49" target="ZiRbrHKVVSvvuvjTJfd7-51" edge="1">
          <mxGeometry relative="1" as="geometry">
            <mxPoint x="-980" y="2310" as="sourcePoint" />
            <mxPoint x="-1130" y="2285" as="targetPoint" />
          </mxGeometry>
        </mxCell>
        <mxCell id="ZiRbrHKVVSvvuvjTJfd7-92" style="rounded=0;orthogonalLoop=1;jettySize=auto;html=1;exitX=0;exitY=0.5;exitDx=0;exitDy=0;entryX=1;entryY=0.5;entryDx=0;entryDy=0;endArrow=none;endFill=0;fillColor=#eeeeee;strokeColor=#36393d;" parent="1" source="ZiRbrHKVVSvvuvjTJfd7-49" target="ZiRbrHKVVSvvuvjTJfd7-52" edge="1">
          <mxGeometry relative="1" as="geometry">
            <mxPoint x="-980" y="2310" as="sourcePoint" />
            <mxPoint x="-1130" y="2355" as="targetPoint" />
          </mxGeometry>
        </mxCell>
        <mxCell id="ZiRbrHKVVSvvuvjTJfd7-93" style="rounded=0;orthogonalLoop=1;jettySize=auto;html=1;exitX=0;exitY=0.5;exitDx=0;exitDy=0;entryX=1;entryY=0.5;entryDx=0;entryDy=0;endArrow=none;endFill=0;fillColor=#eeeeee;strokeColor=#36393d;" parent="1" source="ZiRbrHKVVSvvuvjTJfd7-49" target="ZiRbrHKVVSvvuvjTJfd7-53" edge="1">
          <mxGeometry relative="1" as="geometry">
            <mxPoint x="-980" y="2310" as="sourcePoint" />
            <mxPoint x="-1080" y="2420" as="targetPoint" />
          </mxGeometry>
        </mxCell>
        <mxCell id="ZiRbrHKVVSvvuvjTJfd7-95" style="rounded=0;orthogonalLoop=1;jettySize=auto;html=1;entryX=1;entryY=0.5;entryDx=0;entryDy=0;endArrow=none;endFill=0;fillColor=#eeeeee;strokeColor=#36393d;exitX=0;exitY=0.5;exitDx=0;exitDy=0;" parent="1" source="ZiRbrHKVVSvvuvjTJfd7-49" target="ZiRbrHKVVSvvuvjTJfd7-55" edge="1">
          <mxGeometry relative="1" as="geometry">
            <mxPoint x="-910" y="2310" as="sourcePoint" />
            <mxPoint x="-1080" y="2225" as="targetPoint" />
          </mxGeometry>
        </mxCell>
        <mxCell id="ZiRbrHKVVSvvuvjTJfd7-116" style="rounded=0;orthogonalLoop=1;jettySize=auto;html=1;entryX=0.5;entryY=1;entryDx=0;entryDy=0;endArrow=none;endFill=0;fillColor=#eeeeee;strokeColor=#36393d;exitX=0.5;exitY=0;exitDx=0;exitDy=0;" parent="1" source="ZiRbrHKVVSvvuvjTJfd7-29" target="ZiRbrHKVVSvvuvjTJfd7-23" edge="1">
          <mxGeometry relative="1" as="geometry">
            <mxPoint x="-5" y="-360" as="sourcePoint" />
            <mxPoint x="45" y="-400" as="targetPoint" />
          </mxGeometry>
        </mxCell>
        <mxCell id="ZiRbrHKVVSvvuvjTJfd7-117" style="rounded=0;orthogonalLoop=1;jettySize=auto;html=1;entryX=0.5;entryY=1;entryDx=0;entryDy=0;endArrow=none;endFill=0;fillColor=#eeeeee;strokeColor=#36393d;exitX=0.5;exitY=0;exitDx=0;exitDy=0;" parent="1" source="ZiRbrHKVVSvvuvjTJfd7-29" target="ZiRbrHKVVSvvuvjTJfd7-27" edge="1">
          <mxGeometry relative="1" as="geometry">
            <mxPoint x="15" y="-340" as="sourcePoint" />
            <mxPoint x="60" y="-450" as="targetPoint" />
          </mxGeometry>
        </mxCell>
        <mxCell id="ZiRbrHKVVSvvuvjTJfd7-118" style="rounded=0;orthogonalLoop=1;jettySize=auto;html=1;entryX=0.5;entryY=1;entryDx=0;entryDy=0;endArrow=none;endFill=0;fillColor=#eeeeee;strokeColor=#36393d;exitX=0.5;exitY=0;exitDx=0;exitDy=0;" parent="1" source="ZiRbrHKVVSvvuvjTJfd7-29" target="ZiRbrHKVVSvvuvjTJfd7-28" edge="1">
          <mxGeometry relative="1" as="geometry">
            <mxPoint x="15" y="-340" as="sourcePoint" />
            <mxPoint x="145" y="-420" as="targetPoint" />
          </mxGeometry>
        </mxCell>
        <mxCell id="ZiRbrHKVVSvvuvjTJfd7-119" style="rounded=0;orthogonalLoop=1;jettySize=auto;html=1;entryX=0.5;entryY=1;entryDx=0;entryDy=0;endArrow=none;endFill=0;fillColor=#eeeeee;strokeColor=#36393d;exitX=0.5;exitY=0;exitDx=0;exitDy=0;" parent="1" source="ZiRbrHKVVSvvuvjTJfd7-29" target="ZiRbrHKVVSvvuvjTJfd7-24" edge="1">
          <mxGeometry relative="1" as="geometry">
            <mxPoint x="15" y="-340" as="sourcePoint" />
            <mxPoint x="165" y="-395" as="targetPoint" />
          </mxGeometry>
        </mxCell>
        <mxCell id="ZiRbrHKVVSvvuvjTJfd7-121" style="rounded=0;orthogonalLoop=1;jettySize=auto;html=1;entryX=0.5;entryY=1;entryDx=0;entryDy=0;endArrow=none;endFill=0;fillColor=#eeeeee;strokeColor=#36393d;exitX=0.5;exitY=0;exitDx=0;exitDy=0;" parent="1" source="ZiRbrHKVVSvvuvjTJfd7-29" target="ZiRbrHKVVSvvuvjTJfd7-26" edge="1">
          <mxGeometry relative="1" as="geometry">
            <mxPoint x="15" y="-340" as="sourcePoint" />
            <mxPoint x="-115" y="-420" as="targetPoint" />
          </mxGeometry>
        </mxCell>
        <mxCell id="ZiRbrHKVVSvvuvjTJfd7-122" value="Location" style="ellipse;whiteSpace=wrap;html=1;" parent="1" vertex="1">
          <mxGeometry x="580" y="-150" width="80" height="50" as="geometry" />
        </mxCell>
        <mxCell id="ZiRbrHKVVSvvuvjTJfd7-123" style="rounded=0;orthogonalLoop=1;jettySize=auto;html=1;exitX=0.5;exitY=1;exitDx=0;exitDy=0;entryX=0.5;entryY=0;entryDx=0;entryDy=0;strokeWidth=1;endArrow=none;endFill=0;fillColor=#eeeeee;strokeColor=#36393d;" parent="1" source="ZiRbrHKVVSvvuvjTJfd7-122" target="ZiRbrHKVVSvvuvjTJfd7-43" edge="1">
          <mxGeometry relative="1" as="geometry">
            <mxPoint x="450" y="75" as="sourcePoint" />
            <mxPoint x="320" y="200" as="targetPoint" />
          </mxGeometry>
        </mxCell>
        <mxCell id="ZiRbrHKVVSvvuvjTJfd7-124" style="rounded=0;orthogonalLoop=1;jettySize=auto;html=1;exitX=0.5;exitY=1;exitDx=0;exitDy=0;entryX=0.5;entryY=0;entryDx=0;entryDy=0;strokeWidth=1;endArrow=none;endFill=0;fillColor=#eeeeee;strokeColor=#36393d;" parent="1" source="ZiRbrHKVVSvvuvjTJfd7-38" target="ZiRbrHKVVSvvuvjTJfd7-43" edge="1">
          <mxGeometry relative="1" as="geometry">
            <mxPoint x="630" y="-90" as="sourcePoint" />
            <mxPoint x="630" y="50" as="targetPoint" />
          </mxGeometry>
        </mxCell>
        <mxCell id="ZiRbrHKVVSvvuvjTJfd7-126" style="rounded=0;orthogonalLoop=1;jettySize=auto;html=1;exitX=1;exitY=0.5;exitDx=0;exitDy=0;entryX=0.5;entryY=0;entryDx=0;entryDy=0;strokeWidth=1;endArrow=none;endFill=0;fillColor=#eeeeee;strokeColor=#36393d;" parent="1" source="ZiRbrHKVVSvvuvjTJfd7-40" target="ZiRbrHKVVSvvuvjTJfd7-43" edge="1">
          <mxGeometry relative="1" as="geometry">
            <mxPoint x="480" y="-20" as="sourcePoint" />
            <mxPoint x="630" y="50" as="targetPoint" />
          </mxGeometry>
        </mxCell>
        <mxCell id="ZiRbrHKVVSvvuvjTJfd7-127" style="rounded=0;orthogonalLoop=1;jettySize=auto;html=1;exitX=0.5;exitY=1;exitDx=0;exitDy=0;entryX=0.5;entryY=0;entryDx=0;entryDy=0;strokeWidth=1;endArrow=none;endFill=0;fillColor=#eeeeee;strokeColor=#36393d;" parent="1" source="ZiRbrHKVVSvvuvjTJfd7-37" target="ZiRbrHKVVSvvuvjTJfd7-43" edge="1">
          <mxGeometry relative="1" as="geometry">
            <mxPoint x="630" y="-90" as="sourcePoint" />
            <mxPoint x="630" y="50" as="targetPoint" />
          </mxGeometry>
        </mxCell>
        <mxCell id="ZiRbrHKVVSvvuvjTJfd7-128" style="rounded=0;orthogonalLoop=1;jettySize=auto;html=1;exitX=0.5;exitY=1;exitDx=0;exitDy=0;entryX=0.5;entryY=0;entryDx=0;entryDy=0;strokeWidth=1;endArrow=none;endFill=0;fillColor=#eeeeee;strokeColor=#36393d;" parent="1" source="ZiRbrHKVVSvvuvjTJfd7-41" target="ZiRbrHKVVSvvuvjTJfd7-43" edge="1">
          <mxGeometry relative="1" as="geometry">
            <mxPoint x="700" y="-50" as="sourcePoint" />
            <mxPoint x="630" y="50" as="targetPoint" />
          </mxGeometry>
        </mxCell>
        <mxCell id="ZiRbrHKVVSvvuvjTJfd7-129" style="rounded=0;orthogonalLoop=1;jettySize=auto;html=1;exitX=0;exitY=0.5;exitDx=0;exitDy=0;entryX=0.5;entryY=0;entryDx=0;entryDy=0;strokeWidth=1;endArrow=none;endFill=0;fillColor=#eeeeee;strokeColor=#36393d;" parent="1" source="ZiRbrHKVVSvvuvjTJfd7-42" target="ZiRbrHKVVSvvuvjTJfd7-43" edge="1">
          <mxGeometry relative="1" as="geometry">
            <mxPoint x="780" y="-20" as="sourcePoint" />
            <mxPoint x="630" y="50" as="targetPoint" />
          </mxGeometry>
        </mxCell>
        <mxCell id="sVp0VOFVsgvg84K55iOe-1" value="Availability" style="ellipse;whiteSpace=wrap;html=1;" parent="1" vertex="1">
          <mxGeometry x="-1615" y="166" width="80" height="50" as="geometry" />
        </mxCell>
        <mxCell id="sVp0VOFVsgvg84K55iOe-2" value="&lt;font style=&quot;font-size: 10px;&quot;&gt;Price_per_Night&lt;/font&gt;" style="ellipse;whiteSpace=wrap;html=1;" parent="1" vertex="1">
          <mxGeometry x="-1750" y="166" width="80" height="50" as="geometry" />
        </mxCell>
        <mxCell id="sVp0VOFVsgvg84K55iOe-4" value="&lt;u&gt;Room_id&lt;/u&gt;" style="ellipse;whiteSpace=wrap;html=1;fillColor=#dae8fc;strokeColor=#6c8ebf;gradientColor=#7ea6e0;" parent="1" vertex="1">
          <mxGeometry x="-1840" y="200" width="80" height="50" as="geometry" />
        </mxCell>
        <mxCell id="sVp0VOFVsgvg84K55iOe-5" value="Description" style="ellipse;whiteSpace=wrap;html=1;" parent="1" vertex="1">
          <mxGeometry x="-1547" y="196" width="80" height="50" as="geometry" />
        </mxCell>
        <mxCell id="sVp0VOFVsgvg84K55iOe-6" value="Type" style="ellipse;whiteSpace=wrap;html=1;" parent="1" vertex="1">
          <mxGeometry x="-1520" y="250" width="80" height="50" as="geometry" />
        </mxCell>
        <mxCell id="sVp0VOFVsgvg84K55iOe-7" value="ROOM" style="rounded=1;whiteSpace=wrap;html=1;" parent="1" vertex="1">
          <mxGeometry x="-1705" y="316" width="120" height="60" as="geometry" />
        </mxCell>
        <mxCell id="sVp0VOFVsgvg84K55iOe-8" value="&lt;font style=&quot;font-size: 10px;&quot;&gt;Max_Occupancy&lt;/font&gt;" style="ellipse;whiteSpace=wrap;html=1;" parent="1" vertex="1">
          <mxGeometry x="-1685" y="126" width="80" height="50" as="geometry" />
        </mxCell>
        <mxCell id="sVp0VOFVsgvg84K55iOe-9" style="rounded=0;orthogonalLoop=1;jettySize=auto;html=1;exitX=0.5;exitY=1;exitDx=0;exitDy=0;entryX=0.5;entryY=0;entryDx=0;entryDy=0;strokeWidth=1;endArrow=none;endFill=0;fillColor=#eeeeee;strokeColor=#36393d;" parent="1" source="sVp0VOFVsgvg84K55iOe-8" target="sVp0VOFVsgvg84K55iOe-7" edge="1">
          <mxGeometry relative="1" as="geometry">
            <mxPoint x="-1815" y="351" as="sourcePoint" />
            <mxPoint x="-1945" y="476" as="targetPoint" />
          </mxGeometry>
        </mxCell>
        <mxCell id="sVp0VOFVsgvg84K55iOe-10" style="rounded=0;orthogonalLoop=1;jettySize=auto;html=1;exitX=0.5;exitY=1;exitDx=0;exitDy=0;entryX=0.5;entryY=0;entryDx=0;entryDy=0;strokeWidth=1;endArrow=none;endFill=0;fillColor=#eeeeee;strokeColor=#36393d;" parent="1" source="sVp0VOFVsgvg84K55iOe-2" target="sVp0VOFVsgvg84K55iOe-7" edge="1">
          <mxGeometry relative="1" as="geometry">
            <mxPoint x="-1635" y="186" as="sourcePoint" />
            <mxPoint x="-1635" y="326" as="targetPoint" />
          </mxGeometry>
        </mxCell>
        <mxCell id="sVp0VOFVsgvg84K55iOe-12" style="rounded=0;orthogonalLoop=1;jettySize=auto;html=1;exitX=1;exitY=0.5;exitDx=0;exitDy=0;entryX=0.5;entryY=0;entryDx=0;entryDy=0;strokeWidth=1;endArrow=none;endFill=0;fillColor=#eeeeee;strokeColor=#36393d;" parent="1" source="sVp0VOFVsgvg84K55iOe-4" target="sVp0VOFVsgvg84K55iOe-7" edge="1">
          <mxGeometry relative="1" as="geometry">
            <mxPoint x="-1785" y="256" as="sourcePoint" />
            <mxPoint x="-1635" y="326" as="targetPoint" />
          </mxGeometry>
        </mxCell>
        <mxCell id="sVp0VOFVsgvg84K55iOe-13" style="rounded=0;orthogonalLoop=1;jettySize=auto;html=1;exitX=0.5;exitY=1;exitDx=0;exitDy=0;entryX=0.5;entryY=0;entryDx=0;entryDy=0;strokeWidth=1;endArrow=none;endFill=0;fillColor=#eeeeee;strokeColor=#36393d;" parent="1" source="sVp0VOFVsgvg84K55iOe-1" target="sVp0VOFVsgvg84K55iOe-7" edge="1">
          <mxGeometry relative="1" as="geometry">
            <mxPoint x="-1635" y="186" as="sourcePoint" />
            <mxPoint x="-1635" y="326" as="targetPoint" />
          </mxGeometry>
        </mxCell>
        <mxCell id="sVp0VOFVsgvg84K55iOe-14" style="rounded=0;orthogonalLoop=1;jettySize=auto;html=1;exitX=0.5;exitY=1;exitDx=0;exitDy=0;entryX=0.5;entryY=0;entryDx=0;entryDy=0;strokeWidth=1;endArrow=none;endFill=0;fillColor=#eeeeee;strokeColor=#36393d;" parent="1" source="sVp0VOFVsgvg84K55iOe-5" target="sVp0VOFVsgvg84K55iOe-7" edge="1">
          <mxGeometry relative="1" as="geometry">
            <mxPoint x="-1565" y="226" as="sourcePoint" />
            <mxPoint x="-1635" y="326" as="targetPoint" />
          </mxGeometry>
        </mxCell>
        <mxCell id="sVp0VOFVsgvg84K55iOe-15" style="rounded=0;orthogonalLoop=1;jettySize=auto;html=1;exitX=0;exitY=0.5;exitDx=0;exitDy=0;entryX=0.5;entryY=0;entryDx=0;entryDy=0;strokeWidth=1;endArrow=none;endFill=0;fillColor=#eeeeee;strokeColor=#36393d;" parent="1" source="sVp0VOFVsgvg84K55iOe-6" target="sVp0VOFVsgvg84K55iOe-7" edge="1">
          <mxGeometry relative="1" as="geometry">
            <mxPoint x="-1485" y="256" as="sourcePoint" />
            <mxPoint x="-1635" y="326" as="targetPoint" />
          </mxGeometry>
        </mxCell>
        <mxCell id="sVp0VOFVsgvg84K55iOe-16" value="Date_Joined" style="ellipse;whiteSpace=wrap;html=1;" parent="1" vertex="1">
          <mxGeometry x="-1050" y="166" width="80" height="50" as="geometry" />
        </mxCell>
        <mxCell id="sVp0VOFVsgvg84K55iOe-17" value="E-Mail" style="ellipse;whiteSpace=wrap;html=1;" parent="1" vertex="1">
          <mxGeometry x="-1185" y="166" width="80" height="50" as="geometry" />
        </mxCell>
        <mxCell id="sVp0VOFVsgvg84K55iOe-18" value="Password" style="ellipse;whiteSpace=wrap;html=1;" parent="1" vertex="1">
          <mxGeometry x="-1270" y="196" width="80" height="50" as="geometry" />
        </mxCell>
        <mxCell id="sVp0VOFVsgvg84K55iOe-19" value="&lt;span style=&quot;text-decoration-line: underline;&quot;&gt;User_ID&lt;/span&gt;" style="ellipse;whiteSpace=wrap;html=1;fillColor=#dae8fc;strokeColor=#6c8ebf;gradientColor=#7ea6e0;" parent="1" vertex="1">
          <mxGeometry x="-1330" y="236" width="80" height="50" as="geometry" />
        </mxCell>
        <mxCell id="sVp0VOFVsgvg84K55iOe-20" value="Role" style="ellipse;whiteSpace=wrap;html=1;" parent="1" vertex="1">
          <mxGeometry x="-970" y="196" width="80" height="50" as="geometry" />
        </mxCell>
        <mxCell id="sVp0VOFVsgvg84K55iOe-21" value="UserName" style="ellipse;whiteSpace=wrap;html=1;" parent="1" vertex="1">
          <mxGeometry x="-900" y="236" width="80" height="50" as="geometry" />
        </mxCell>
        <mxCell id="sVp0VOFVsgvg84K55iOe-22" value="USER" style="rounded=1;whiteSpace=wrap;html=1;" parent="1" vertex="1">
          <mxGeometry x="-1140" y="316" width="120" height="60" as="geometry" />
        </mxCell>
        <mxCell id="sVp0VOFVsgvg84K55iOe-24" style="rounded=0;orthogonalLoop=1;jettySize=auto;html=1;exitX=0.5;exitY=1;exitDx=0;exitDy=0;entryX=0.5;entryY=0;entryDx=0;entryDy=0;strokeWidth=1;endArrow=none;endFill=0;fillColor=#eeeeee;strokeColor=#36393d;" parent="1" source="sVp0VOFVsgvg84K55iOe-31" target="sVp0VOFVsgvg84K55iOe-22" edge="1">
          <mxGeometry relative="1" as="geometry">
            <mxPoint x="-1080" y="176" as="sourcePoint" />
            <mxPoint x="-1380" y="476" as="targetPoint" />
          </mxGeometry>
        </mxCell>
        <mxCell id="sVp0VOFVsgvg84K55iOe-25" style="rounded=0;orthogonalLoop=1;jettySize=auto;html=1;exitX=0.5;exitY=1;exitDx=0;exitDy=0;entryX=0.5;entryY=0;entryDx=0;entryDy=0;strokeWidth=1;endArrow=none;endFill=0;fillColor=#eeeeee;strokeColor=#36393d;" parent="1" source="sVp0VOFVsgvg84K55iOe-17" target="sVp0VOFVsgvg84K55iOe-22" edge="1">
          <mxGeometry relative="1" as="geometry">
            <mxPoint x="-1070" y="186" as="sourcePoint" />
            <mxPoint x="-1070" y="326" as="targetPoint" />
          </mxGeometry>
        </mxCell>
        <mxCell id="sVp0VOFVsgvg84K55iOe-26" style="rounded=0;orthogonalLoop=1;jettySize=auto;html=1;exitX=0.5;exitY=1;exitDx=0;exitDy=0;entryX=0.5;entryY=0;entryDx=0;entryDy=0;strokeWidth=1;endArrow=none;endFill=0;fillColor=#eeeeee;strokeColor=#36393d;" parent="1" source="sVp0VOFVsgvg84K55iOe-18" target="sVp0VOFVsgvg84K55iOe-22" edge="1">
          <mxGeometry relative="1" as="geometry">
            <mxPoint x="-1135" y="226" as="sourcePoint" />
            <mxPoint x="-1070" y="326" as="targetPoint" />
          </mxGeometry>
        </mxCell>
        <mxCell id="sVp0VOFVsgvg84K55iOe-27" style="rounded=0;orthogonalLoop=1;jettySize=auto;html=1;exitX=1;exitY=0.5;exitDx=0;exitDy=0;entryX=0.5;entryY=0;entryDx=0;entryDy=0;strokeWidth=1;endArrow=none;endFill=0;fillColor=#eeeeee;strokeColor=#36393d;" parent="1" source="sVp0VOFVsgvg84K55iOe-19" target="sVp0VOFVsgvg84K55iOe-22" edge="1">
          <mxGeometry relative="1" as="geometry">
            <mxPoint x="-1220" y="256" as="sourcePoint" />
            <mxPoint x="-1070" y="326" as="targetPoint" />
          </mxGeometry>
        </mxCell>
        <mxCell id="sVp0VOFVsgvg84K55iOe-28" style="rounded=0;orthogonalLoop=1;jettySize=auto;html=1;exitX=0.5;exitY=1;exitDx=0;exitDy=0;entryX=0.5;entryY=0;entryDx=0;entryDy=0;strokeWidth=1;endArrow=none;endFill=0;fillColor=#eeeeee;strokeColor=#36393d;" parent="1" source="sVp0VOFVsgvg84K55iOe-16" target="sVp0VOFVsgvg84K55iOe-22" edge="1">
          <mxGeometry relative="1" as="geometry">
            <mxPoint x="-1070" y="186" as="sourcePoint" />
            <mxPoint x="-1070" y="326" as="targetPoint" />
          </mxGeometry>
        </mxCell>
        <mxCell id="sVp0VOFVsgvg84K55iOe-29" style="rounded=0;orthogonalLoop=1;jettySize=auto;html=1;exitX=0.5;exitY=1;exitDx=0;exitDy=0;entryX=0.5;entryY=0;entryDx=0;entryDy=0;strokeWidth=1;endArrow=none;endFill=0;fillColor=#eeeeee;strokeColor=#36393d;" parent="1" source="sVp0VOFVsgvg84K55iOe-20" target="sVp0VOFVsgvg84K55iOe-22" edge="1">
          <mxGeometry relative="1" as="geometry">
            <mxPoint x="-1000" y="226" as="sourcePoint" />
            <mxPoint x="-1070" y="326" as="targetPoint" />
          </mxGeometry>
        </mxCell>
        <mxCell id="sVp0VOFVsgvg84K55iOe-30" style="rounded=0;orthogonalLoop=1;jettySize=auto;html=1;exitX=0;exitY=0.5;exitDx=0;exitDy=0;entryX=0.5;entryY=0;entryDx=0;entryDy=0;strokeWidth=1;endArrow=none;endFill=0;fillColor=#eeeeee;strokeColor=#36393d;" parent="1" source="sVp0VOFVsgvg84K55iOe-21" target="sVp0VOFVsgvg84K55iOe-22" edge="1">
          <mxGeometry relative="1" as="geometry">
            <mxPoint x="-920" y="256" as="sourcePoint" />
            <mxPoint x="-1070" y="326" as="targetPoint" />
          </mxGeometry>
        </mxCell>
        <mxCell id="sVp0VOFVsgvg84K55iOe-31" value="Phone_Number" style="ellipse;shape=doubleEllipse;margin=3;whiteSpace=wrap;html=1;align=center;" parent="1" vertex="1">
          <mxGeometry x="-1130" y="126" width="100" height="40" as="geometry" />
        </mxCell>
        <mxCell id="sVp0VOFVsgvg84K55iOe-33" value="Description" style="ellipse;whiteSpace=wrap;html=1;" parent="1" vertex="1">
          <mxGeometry x="-535" y="70" width="80" height="50" as="geometry" />
        </mxCell>
        <mxCell id="sVp0VOFVsgvg84K55iOe-35" value="&lt;span style=&quot;text-decoration-line: underline;&quot;&gt;Hotel _ID&lt;/span&gt;" style="ellipse;whiteSpace=wrap;html=1;fillColor=#dae8fc;strokeColor=#6c8ebf;gradientColor=#7ea6e0;" parent="1" vertex="1">
          <mxGeometry x="-615" y="100" width="80" height="50" as="geometry" />
        </mxCell>
        <mxCell id="sVp0VOFVsgvg84K55iOe-36" value="Name" style="ellipse;whiteSpace=wrap;html=1;" parent="1" vertex="1">
          <mxGeometry x="-340" y="90" width="80" height="50" as="geometry" />
        </mxCell>
        <mxCell id="sVp0VOFVsgvg84K55iOe-37" value="State&amp;nbsp;" style="ellipse;whiteSpace=wrap;html=1;" parent="1" vertex="1">
          <mxGeometry x="-250" y="140" width="80" height="50" as="geometry" />
        </mxCell>
        <mxCell id="sVp0VOFVsgvg84K55iOe-38" value="HOTEL" style="rounded=1;whiteSpace=wrap;html=1;" parent="1" vertex="1">
          <mxGeometry x="-490" y="345" width="120" height="60" as="geometry" />
        </mxCell>
        <mxCell id="sVp0VOFVsgvg84K55iOe-39" style="rounded=0;orthogonalLoop=1;jettySize=auto;html=1;exitX=0.5;exitY=1;exitDx=0;exitDy=0;entryX=0.5;entryY=0;entryDx=0;entryDy=0;strokeWidth=1;endArrow=none;endFill=0;fillColor=#eeeeee;strokeColor=#36393d;" parent="1" source="sVp0VOFVsgvg84K55iOe-47" target="sVp0VOFVsgvg84K55iOe-38" edge="1">
          <mxGeometry relative="1" as="geometry">
            <mxPoint x="-430" y="70" as="sourcePoint" />
            <mxPoint x="-730" y="380" as="targetPoint" />
          </mxGeometry>
        </mxCell>
        <mxCell id="sVp0VOFVsgvg84K55iOe-40" style="rounded=0;orthogonalLoop=1;jettySize=auto;html=1;exitX=0.5;exitY=1;exitDx=0;exitDy=0;entryX=0.5;entryY=0;entryDx=0;entryDy=0;strokeWidth=1;endArrow=none;endFill=0;fillColor=#eeeeee;strokeColor=#36393d;" parent="1" source="sVp0VOFVsgvg84K55iOe-33" target="sVp0VOFVsgvg84K55iOe-38" edge="1">
          <mxGeometry relative="1" as="geometry">
            <mxPoint x="-420" y="90" as="sourcePoint" />
            <mxPoint x="-420" y="230" as="targetPoint" />
          </mxGeometry>
        </mxCell>
        <mxCell id="sVp0VOFVsgvg84K55iOe-42" style="rounded=0;orthogonalLoop=1;jettySize=auto;html=1;exitX=1;exitY=0.5;exitDx=0;exitDy=0;entryX=0.5;entryY=0;entryDx=0;entryDy=0;strokeWidth=1;endArrow=none;endFill=0;fillColor=#eeeeee;strokeColor=#36393d;" parent="1" source="sVp0VOFVsgvg84K55iOe-35" target="sVp0VOFVsgvg84K55iOe-38" edge="1">
          <mxGeometry relative="1" as="geometry">
            <mxPoint x="-570" y="160" as="sourcePoint" />
            <mxPoint x="-420" y="230" as="targetPoint" />
          </mxGeometry>
        </mxCell>
        <mxCell id="sVp0VOFVsgvg84K55iOe-44" style="rounded=0;orthogonalLoop=1;jettySize=auto;html=1;exitX=0.5;exitY=1;exitDx=0;exitDy=0;entryX=0.5;entryY=0;entryDx=0;entryDy=0;strokeWidth=1;endArrow=none;endFill=0;fillColor=#eeeeee;strokeColor=#36393d;" parent="1" source="sVp0VOFVsgvg84K55iOe-36" target="sVp0VOFVsgvg84K55iOe-38" edge="1">
          <mxGeometry relative="1" as="geometry">
            <mxPoint x="-350" y="130" as="sourcePoint" />
            <mxPoint x="-420" y="230" as="targetPoint" />
          </mxGeometry>
        </mxCell>
        <mxCell id="sVp0VOFVsgvg84K55iOe-45" style="rounded=0;orthogonalLoop=1;jettySize=auto;html=1;exitX=0;exitY=0.5;exitDx=0;exitDy=0;entryX=0.5;entryY=0;entryDx=0;entryDy=0;strokeWidth=1;endArrow=none;endFill=0;fillColor=#eeeeee;strokeColor=#36393d;" parent="1" source="sVp0VOFVsgvg84K55iOe-37" target="sVp0VOFVsgvg84K55iOe-38" edge="1">
          <mxGeometry relative="1" as="geometry">
            <mxPoint x="-270" y="160" as="sourcePoint" />
            <mxPoint x="-420" y="230" as="targetPoint" />
          </mxGeometry>
        </mxCell>
        <mxCell id="sVp0VOFVsgvg84K55iOe-47" value="City" style="ellipse;whiteSpace=wrap;html=1;" parent="1" vertex="1">
          <mxGeometry x="-440" y="70" width="80" height="50" as="geometry" />
        </mxCell>
        <mxCell id="sVp0VOFVsgvg84K55iOe-48" value="Country" style="ellipse;whiteSpace=wrap;html=1;" parent="1" vertex="1">
          <mxGeometry x="-190" y="186" width="80" height="50" as="geometry" />
        </mxCell>
        <mxCell id="sVp0VOFVsgvg84K55iOe-49" style="rounded=0;orthogonalLoop=1;jettySize=auto;html=1;exitX=0;exitY=0.5;exitDx=0;exitDy=0;entryX=0.5;entryY=0;entryDx=0;entryDy=0;strokeWidth=1;endArrow=none;endFill=0;fillColor=#eeeeee;strokeColor=#36393d;" parent="1" source="sVp0VOFVsgvg84K55iOe-48" target="sVp0VOFVsgvg84K55iOe-38" edge="1">
          <mxGeometry relative="1" as="geometry">
            <mxPoint x="-240" y="175" as="sourcePoint" />
            <mxPoint x="-420" y="230" as="targetPoint" />
          </mxGeometry>
        </mxCell>
        <mxCell id="sVp0VOFVsgvg84K55iOe-52" value="Zip Code" style="ellipse;whiteSpace=wrap;html=1;" parent="1" vertex="1">
          <mxGeometry x="-160" y="250" width="80" height="50" as="geometry" />
        </mxCell>
        <mxCell id="sVp0VOFVsgvg84K55iOe-53" style="rounded=0;orthogonalLoop=1;jettySize=auto;html=1;exitX=0;exitY=0.5;exitDx=0;exitDy=0;entryX=0.5;entryY=0;entryDx=0;entryDy=0;strokeWidth=1;endArrow=none;endFill=0;fillColor=#eeeeee;strokeColor=#36393d;" parent="1" source="sVp0VOFVsgvg84K55iOe-52" target="sVp0VOFVsgvg84K55iOe-38" edge="1">
          <mxGeometry relative="1" as="geometry">
            <mxPoint x="-180" y="221" as="sourcePoint" />
            <mxPoint x="-420" y="355" as="targetPoint" />
          </mxGeometry>
        </mxCell>
        <mxCell id="sVp0VOFVsgvg84K55iOe-90" value="Discount&lt;div&gt;Percentage&lt;/div&gt;" style="ellipse;whiteSpace=wrap;html=1;" parent="1" vertex="1">
          <mxGeometry x="733" y="1556.5" width="80" height="50" as="geometry" />
        </mxCell>
        <mxCell id="sVp0VOFVsgvg84K55iOe-92" value="Title" style="ellipse;whiteSpace=wrap;html=1;" parent="1" vertex="1">
          <mxGeometry x="804" y="1596.5" width="80" height="50" as="geometry" />
        </mxCell>
        <mxCell id="sVp0VOFVsgvg84K55iOe-93" value="Start_Date" style="ellipse;whiteSpace=wrap;html=1;" parent="1" vertex="1">
          <mxGeometry x="894" y="1596.5" width="80" height="50" as="geometry" />
        </mxCell>
        <mxCell id="sVp0VOFVsgvg84K55iOe-94" value="PROMOTION" style="rounded=1;whiteSpace=wrap;html=1;" parent="1" vertex="1">
          <mxGeometry x="804" y="1326.5" width="120" height="60" as="geometry" />
        </mxCell>
        <mxCell id="sVp0VOFVsgvg84K55iOe-95" value="&lt;span style=&quot;text-decoration-line: underline;&quot;&gt;Promotion_ID&lt;/span&gt;" style="ellipse;whiteSpace=wrap;html=1;fillColor=#dae8fc;strokeColor=#6c8ebf;gradientColor=#7ea6e0;" parent="1" vertex="1">
          <mxGeometry x="664" y="1516.5" width="80" height="50" as="geometry" />
        </mxCell>
        <mxCell id="sVp0VOFVsgvg84K55iOe-97" style="rounded=0;orthogonalLoop=1;jettySize=auto;html=1;exitX=0.5;exitY=1;exitDx=0;exitDy=0;entryX=0.5;entryY=0;entryDx=0;entryDy=0;endArrow=none;endFill=0;fillColor=#eeeeee;strokeColor=#36393d;" parent="1" source="sVp0VOFVsgvg84K55iOe-94" target="sVp0VOFVsgvg84K55iOe-95" edge="1">
          <mxGeometry relative="1" as="geometry">
            <mxPoint x="874" y="1396.5" as="sourcePoint" />
            <mxPoint x="714" y="1506.5" as="targetPoint" />
          </mxGeometry>
        </mxCell>
        <mxCell id="sVp0VOFVsgvg84K55iOe-98" style="rounded=0;orthogonalLoop=1;jettySize=auto;html=1;exitX=0.5;exitY=1;exitDx=0;exitDy=0;entryX=0.5;entryY=0;entryDx=0;entryDy=0;endArrow=none;endFill=0;fillColor=#eeeeee;strokeColor=#36393d;" parent="1" source="sVp0VOFVsgvg84K55iOe-94" target="sVp0VOFVsgvg84K55iOe-90" edge="1">
          <mxGeometry relative="1" as="geometry">
            <mxPoint x="874" y="1396.5" as="sourcePoint" />
            <mxPoint x="794" y="1536.5" as="targetPoint" />
          </mxGeometry>
        </mxCell>
        <mxCell id="sVp0VOFVsgvg84K55iOe-99" style="rounded=0;orthogonalLoop=1;jettySize=auto;html=1;exitX=0.5;exitY=1;exitDx=0;exitDy=0;entryX=0.5;entryY=0;entryDx=0;entryDy=0;endArrow=none;endFill=0;fillColor=#eeeeee;strokeColor=#36393d;" parent="1" source="sVp0VOFVsgvg84K55iOe-94" target="sVp0VOFVsgvg84K55iOe-92" edge="1">
          <mxGeometry relative="1" as="geometry">
            <mxPoint x="874" y="1396.5" as="sourcePoint" />
            <mxPoint x="874" y="1566.5" as="targetPoint" />
          </mxGeometry>
        </mxCell>
        <mxCell id="sVp0VOFVsgvg84K55iOe-100" style="rounded=0;orthogonalLoop=1;jettySize=auto;html=1;exitX=0.5;exitY=1;exitDx=0;exitDy=0;entryX=0.5;entryY=0;entryDx=0;entryDy=0;endArrow=none;endFill=0;fillColor=#eeeeee;strokeColor=#36393d;" parent="1" source="sVp0VOFVsgvg84K55iOe-94" target="sVp0VOFVsgvg84K55iOe-93" edge="1">
          <mxGeometry relative="1" as="geometry">
            <mxPoint x="874" y="1396.5" as="sourcePoint" />
            <mxPoint x="954" y="1536.5" as="targetPoint" />
          </mxGeometry>
        </mxCell>
        <mxCell id="sVp0VOFVsgvg84K55iOe-101" value="End_Date" style="ellipse;whiteSpace=wrap;html=1;" parent="1" vertex="1">
          <mxGeometry x="964" y="1556.5" width="80" height="50" as="geometry" />
        </mxCell>
        <mxCell id="sVp0VOFVsgvg84K55iOe-102" style="rounded=0;orthogonalLoop=1;jettySize=auto;html=1;exitX=0.5;exitY=1;exitDx=0;exitDy=0;entryX=0.5;entryY=0;entryDx=0;entryDy=0;endArrow=none;endFill=0;fillColor=#eeeeee;strokeColor=#36393d;" parent="1" source="sVp0VOFVsgvg84K55iOe-94" target="sVp0VOFVsgvg84K55iOe-101" edge="1">
          <mxGeometry relative="1" as="geometry">
            <mxPoint x="874" y="1396.5" as="sourcePoint" />
            <mxPoint x="1034" y="1506.5" as="targetPoint" />
          </mxGeometry>
        </mxCell>
        <mxCell id="sVp0VOFVsgvg84K55iOe-103" value="Description" style="ellipse;whiteSpace=wrap;html=1;" parent="1" vertex="1">
          <mxGeometry x="1019" y="1501.5" width="80" height="50" as="geometry" />
        </mxCell>
        <mxCell id="sVp0VOFVsgvg84K55iOe-104" style="rounded=0;orthogonalLoop=1;jettySize=auto;html=1;exitX=0.5;exitY=1;exitDx=0;exitDy=0;entryX=0.5;entryY=0;entryDx=0;entryDy=0;endArrow=none;endFill=0;fillColor=#eeeeee;strokeColor=#36393d;" parent="1" source="sVp0VOFVsgvg84K55iOe-94" target="sVp0VOFVsgvg84K55iOe-103" edge="1">
          <mxGeometry relative="1" as="geometry">
            <mxPoint x="874" y="1396.5" as="sourcePoint" />
            <mxPoint x="1059" y="1471.5" as="targetPoint" />
          </mxGeometry>
        </mxCell>
        <mxCell id="sVp0VOFVsgvg84K55iOe-105" value="Status" style="ellipse;whiteSpace=wrap;html=1;" parent="1" vertex="1">
          <mxGeometry x="-331" y="2125" width="80" height="50" as="geometry" />
        </mxCell>
        <mxCell id="sVp0VOFVsgvg84K55iOe-106" value="Total_Price" style="ellipse;whiteSpace=wrap;html=1;" parent="1" vertex="1">
          <mxGeometry x="-260" y="2165" width="80" height="50" as="geometry" />
        </mxCell>
        <mxCell id="sVp0VOFVsgvg84K55iOe-107" value="&lt;font style=&quot;font-size: 11px;&quot;&gt;CheckIN_Date&lt;/font&gt;" style="ellipse;whiteSpace=wrap;html=1;" parent="1" vertex="1">
          <mxGeometry x="-170" y="2165" width="80" height="50" as="geometry" />
        </mxCell>
        <mxCell id="sVp0VOFVsgvg84K55iOe-108" value="BOOKING" style="rounded=1;whiteSpace=wrap;html=1;" parent="1" vertex="1">
          <mxGeometry x="-295" y="1880" width="120" height="60" as="geometry" />
        </mxCell>
        <mxCell id="sVp0VOFVsgvg84K55iOe-109" value="&lt;span style=&quot;text-decoration-line: underline;&quot;&gt;Booking_ID&lt;/span&gt;" style="ellipse;whiteSpace=wrap;html=1;fillColor=#dae8fc;strokeColor=#6c8ebf;gradientColor=#7ea6e0;" parent="1" vertex="1">
          <mxGeometry x="-400" y="2085" width="80" height="50" as="geometry" />
        </mxCell>
        <mxCell id="sVp0VOFVsgvg84K55iOe-110" style="rounded=0;orthogonalLoop=1;jettySize=auto;html=1;exitX=0.5;exitY=1;exitDx=0;exitDy=0;entryX=0.5;entryY=0;entryDx=0;entryDy=0;endArrow=none;endFill=0;fillColor=#eeeeee;strokeColor=#36393d;" parent="1" source="sVp0VOFVsgvg84K55iOe-108" target="sVp0VOFVsgvg84K55iOe-109" edge="1">
          <mxGeometry relative="1" as="geometry">
            <mxPoint x="-225" y="1950" as="sourcePoint" />
            <mxPoint x="-385" y="2060" as="targetPoint" />
          </mxGeometry>
        </mxCell>
        <mxCell id="sVp0VOFVsgvg84K55iOe-111" style="rounded=0;orthogonalLoop=1;jettySize=auto;html=1;exitX=0.5;exitY=1;exitDx=0;exitDy=0;entryX=0.5;entryY=0;entryDx=0;entryDy=0;endArrow=none;endFill=0;fillColor=#eeeeee;strokeColor=#36393d;" parent="1" source="sVp0VOFVsgvg84K55iOe-108" target="sVp0VOFVsgvg84K55iOe-105" edge="1">
          <mxGeometry relative="1" as="geometry">
            <mxPoint x="-225" y="1950" as="sourcePoint" />
            <mxPoint x="-305" y="2090" as="targetPoint" />
          </mxGeometry>
        </mxCell>
        <mxCell id="sVp0VOFVsgvg84K55iOe-112" style="rounded=0;orthogonalLoop=1;jettySize=auto;html=1;exitX=0.5;exitY=1;exitDx=0;exitDy=0;entryX=0.5;entryY=0;entryDx=0;entryDy=0;endArrow=none;endFill=0;fillColor=#eeeeee;strokeColor=#36393d;" parent="1" source="sVp0VOFVsgvg84K55iOe-108" target="sVp0VOFVsgvg84K55iOe-106" edge="1">
          <mxGeometry relative="1" as="geometry">
            <mxPoint x="-225" y="1950" as="sourcePoint" />
            <mxPoint x="-225" y="2120" as="targetPoint" />
          </mxGeometry>
        </mxCell>
        <mxCell id="sVp0VOFVsgvg84K55iOe-113" style="rounded=0;orthogonalLoop=1;jettySize=auto;html=1;exitX=0.5;exitY=1;exitDx=0;exitDy=0;entryX=0.5;entryY=0;entryDx=0;entryDy=0;endArrow=none;endFill=0;fillColor=#eeeeee;strokeColor=#36393d;" parent="1" source="sVp0VOFVsgvg84K55iOe-108" target="sVp0VOFVsgvg84K55iOe-107" edge="1">
          <mxGeometry relative="1" as="geometry">
            <mxPoint x="-225" y="1950" as="sourcePoint" />
            <mxPoint x="-145" y="2090" as="targetPoint" />
          </mxGeometry>
        </mxCell>
        <mxCell id="sVp0VOFVsgvg84K55iOe-114" value="&lt;font style=&quot;font-size: 9px;&quot;&gt;CheckOUT_Date&lt;/font&gt;" style="ellipse;whiteSpace=wrap;html=1;" parent="1" vertex="1">
          <mxGeometry x="-100" y="2125" width="80" height="50" as="geometry" />
        </mxCell>
        <mxCell id="sVp0VOFVsgvg84K55iOe-115" style="rounded=0;orthogonalLoop=1;jettySize=auto;html=1;exitX=0.5;exitY=1;exitDx=0;exitDy=0;entryX=0.5;entryY=0;entryDx=0;entryDy=0;endArrow=none;endFill=0;fillColor=#eeeeee;strokeColor=#36393d;" parent="1" source="sVp0VOFVsgvg84K55iOe-108" target="sVp0VOFVsgvg84K55iOe-114" edge="1">
          <mxGeometry relative="1" as="geometry">
            <mxPoint x="-225" y="1950" as="sourcePoint" />
            <mxPoint x="-65" y="2060" as="targetPoint" />
          </mxGeometry>
        </mxCell>
        <mxCell id="sVp0VOFVsgvg84K55iOe-132" value="Amount" style="ellipse;whiteSpace=wrap;html=1;" parent="1" vertex="1">
          <mxGeometry x="789" y="2113" width="80" height="50" as="geometry" />
        </mxCell>
        <mxCell id="sVp0VOFVsgvg84K55iOe-133" value="&lt;font style=&quot;font-size: 11px;&quot;&gt;Payment_Date&lt;/font&gt;" style="ellipse;whiteSpace=wrap;html=1;" parent="1" vertex="1">
          <mxGeometry x="880" y="2125" width="80" height="50" as="geometry" />
        </mxCell>
        <mxCell id="sVp0VOFVsgvg84K55iOe-134" value="&lt;font style=&quot;font-size: 10px;&quot;&gt;Payment_Method&lt;/font&gt;" style="ellipse;whiteSpace=wrap;html=1;" parent="1" vertex="1">
          <mxGeometry x="930" y="2070" width="80" height="50" as="geometry" />
        </mxCell>
        <mxCell id="sVp0VOFVsgvg84K55iOe-135" value="PAYMENT" style="rounded=1;whiteSpace=wrap;html=1;" parent="1" vertex="1">
          <mxGeometry x="831" y="1880" width="120" height="60" as="geometry" />
        </mxCell>
        <mxCell id="sVp0VOFVsgvg84K55iOe-136" value="&lt;span style=&quot;text-decoration-line: underline;&quot;&gt;Payment_ID&lt;/span&gt;" style="ellipse;whiteSpace=wrap;html=1;fillColor=#dae8fc;strokeColor=#6c8ebf;gradientColor=#7ea6e0;" parent="1" vertex="1">
          <mxGeometry x="720" y="2073" width="80" height="50" as="geometry" />
        </mxCell>
        <mxCell id="sVp0VOFVsgvg84K55iOe-137" style="rounded=0;orthogonalLoop=1;jettySize=auto;html=1;exitX=0.5;exitY=1;exitDx=0;exitDy=0;entryX=0.5;entryY=0;entryDx=0;entryDy=0;endArrow=none;endFill=0;fillColor=#eeeeee;strokeColor=#36393d;" parent="1" source="sVp0VOFVsgvg84K55iOe-135" target="sVp0VOFVsgvg84K55iOe-136" edge="1">
          <mxGeometry relative="1" as="geometry">
            <mxPoint x="900" y="1938" as="sourcePoint" />
            <mxPoint x="740" y="2048" as="targetPoint" />
          </mxGeometry>
        </mxCell>
        <mxCell id="sVp0VOFVsgvg84K55iOe-138" style="rounded=0;orthogonalLoop=1;jettySize=auto;html=1;exitX=0.5;exitY=1;exitDx=0;exitDy=0;entryX=0.5;entryY=0;entryDx=0;entryDy=0;endArrow=none;endFill=0;fillColor=#eeeeee;strokeColor=#36393d;" parent="1" source="sVp0VOFVsgvg84K55iOe-135" target="sVp0VOFVsgvg84K55iOe-132" edge="1">
          <mxGeometry relative="1" as="geometry">
            <mxPoint x="900" y="1938" as="sourcePoint" />
            <mxPoint x="820" y="2078" as="targetPoint" />
          </mxGeometry>
        </mxCell>
        <mxCell id="sVp0VOFVsgvg84K55iOe-139" style="rounded=0;orthogonalLoop=1;jettySize=auto;html=1;exitX=0.5;exitY=1;exitDx=0;exitDy=0;entryX=0.5;entryY=0;entryDx=0;entryDy=0;endArrow=none;endFill=0;fillColor=#eeeeee;strokeColor=#36393d;" parent="1" source="sVp0VOFVsgvg84K55iOe-135" target="sVp0VOFVsgvg84K55iOe-133" edge="1">
          <mxGeometry relative="1" as="geometry">
            <mxPoint x="900" y="1938" as="sourcePoint" />
            <mxPoint x="900" y="2108" as="targetPoint" />
          </mxGeometry>
        </mxCell>
        <mxCell id="sVp0VOFVsgvg84K55iOe-140" style="rounded=0;orthogonalLoop=1;jettySize=auto;html=1;exitX=0.5;exitY=1;exitDx=0;exitDy=0;entryX=0.5;entryY=0;entryDx=0;entryDy=0;endArrow=none;endFill=0;fillColor=#eeeeee;strokeColor=#36393d;" parent="1" source="sVp0VOFVsgvg84K55iOe-135" target="sVp0VOFVsgvg84K55iOe-134" edge="1">
          <mxGeometry relative="1" as="geometry">
            <mxPoint x="900" y="1938" as="sourcePoint" />
            <mxPoint x="980" y="2078" as="targetPoint" />
          </mxGeometry>
        </mxCell>
        <mxCell id="-JNlNa9qQTR6GLERmXfT-2" style="edgeStyle=orthogonalEdgeStyle;rounded=0;orthogonalLoop=1;jettySize=auto;html=1;exitX=1;exitY=0.5;exitDx=0;exitDy=0;entryX=0.5;entryY=0;entryDx=0;entryDy=0;endArrow=ERone;endFill=0;fillColor=#ffe6cc;strokeColor=#d79b00;" parent="1" source="-JNlNa9qQTR6GLERmXfT-4" target="sVp0VOFVsgvg84K55iOe-108" edge="1">
          <mxGeometry relative="1" as="geometry">
            <mxPoint x="-62" y="1390" as="targetPoint" />
          </mxGeometry>
        </mxCell>
        <mxCell id="-JNlNa9qQTR6GLERmXfT-3" style="edgeStyle=orthogonalEdgeStyle;rounded=0;orthogonalLoop=1;jettySize=auto;html=1;exitX=0;exitY=0.5;exitDx=0;exitDy=0;entryX=0.5;entryY=1;entryDx=0;entryDy=0;endArrow=ERmany;endFill=0;fillColor=#ffe6cc;strokeColor=#d79b00;" parent="1" source="-JNlNa9qQTR6GLERmXfT-4" target="sVp0VOFVsgvg84K55iOe-22" edge="1">
          <mxGeometry relative="1" as="geometry">
            <mxPoint x="-620" y="470" as="targetPoint" />
          </mxGeometry>
        </mxCell>
        <mxCell id="-JNlNa9qQTR6GLERmXfT-4" value="Book" style="shape=rhombus;perimeter=rhombusPerimeter;whiteSpace=wrap;html=1;align=center;" parent="1" vertex="1">
          <mxGeometry x="-680" y="710" width="120" height="60" as="geometry" />
        </mxCell>
        <mxCell id="-JNlNa9qQTR6GLERmXfT-5" style="edgeStyle=orthogonalEdgeStyle;rounded=0;orthogonalLoop=1;jettySize=auto;html=1;exitX=1;exitY=0.5;exitDx=0;exitDy=0;entryX=0.25;entryY=1;entryDx=0;entryDy=0;fillColor=#ffe6cc;strokeColor=#d79b00;endArrow=ERone;endFill=0;" parent="1" source="-JNlNa9qQTR6GLERmXfT-7" target="sVp0VOFVsgvg84K55iOe-22" edge="1">
          <mxGeometry relative="1" as="geometry">
            <mxPoint x="-1650" y="821" as="targetPoint" />
          </mxGeometry>
        </mxCell>
        <mxCell id="-JNlNa9qQTR6GLERmXfT-6" style="edgeStyle=orthogonalEdgeStyle;rounded=0;orthogonalLoop=1;jettySize=auto;html=1;exitX=0;exitY=0.5;exitDx=0;exitDy=0;entryX=0.5;entryY=0;entryDx=0;entryDy=0;fillColor=#ffe6cc;strokeColor=#d79b00;endArrow=ERmany;endFill=0;" parent="1" target="ZiRbrHKVVSvvuvjTJfd7-22" edge="1">
          <mxGeometry relative="1" as="geometry">
            <mxPoint x="-2391" y="871" as="targetPoint" />
            <mxPoint x="-1736" y="820" as="sourcePoint" />
          </mxGeometry>
        </mxCell>
        <mxCell id="-JNlNa9qQTR6GLERmXfT-7" value="Send" style="shape=rhombus;perimeter=rhombusPerimeter;whiteSpace=wrap;html=1;align=center;" parent="1" vertex="1">
          <mxGeometry x="-1735" y="790" width="120" height="60" as="geometry" />
        </mxCell>
        <mxCell id="-JNlNa9qQTR6GLERmXfT-12" style="edgeStyle=orthogonalEdgeStyle;rounded=0;orthogonalLoop=1;jettySize=auto;html=1;exitX=1;exitY=0.5;exitDx=0;exitDy=0;entryX=0;entryY=0.75;entryDx=0;entryDy=0;endArrow=ERone;endFill=0;" parent="1" source="-JNlNa9qQTR6GLERmXfT-14" target="sVp0VOFVsgvg84K55iOe-38" edge="1">
          <mxGeometry relative="1" as="geometry">
            <mxPoint x="-1030" y="561" as="targetPoint" />
          </mxGeometry>
        </mxCell>
        <mxCell id="-JNlNa9qQTR6GLERmXfT-13" style="edgeStyle=orthogonalEdgeStyle;rounded=0;orthogonalLoop=1;jettySize=auto;html=1;exitX=0;exitY=0.5;exitDx=0;exitDy=0;entryX=0.5;entryY=1;entryDx=0;entryDy=0;endArrow=ERmany;endFill=0;" parent="1" source="-JNlNa9qQTR6GLERmXfT-14" target="sVp0VOFVsgvg84K55iOe-7" edge="1">
          <mxGeometry relative="1" as="geometry">
            <mxPoint x="-1700" y="561" as="targetPoint" />
          </mxGeometry>
        </mxCell>
        <mxCell id="-JNlNa9qQTR6GLERmXfT-14" value="Have" style="shape=rhombus;perimeter=rhombusPerimeter;whiteSpace=wrap;html=1;align=center;" parent="1" vertex="1">
          <mxGeometry x="-1467" y="531" width="120" height="60" as="geometry" />
        </mxCell>
        <mxCell id="-JNlNa9qQTR6GLERmXfT-15" style="edgeStyle=orthogonalEdgeStyle;rounded=0;orthogonalLoop=1;jettySize=auto;html=1;exitX=0.5;exitY=0;exitDx=0;exitDy=0;entryX=0.75;entryY=1;entryDx=0;entryDy=0;endArrow=ERone;endFill=0;" parent="1" source="-JNlNa9qQTR6GLERmXfT-17" target="sVp0VOFVsgvg84K55iOe-38" edge="1">
          <mxGeometry relative="1" as="geometry">
            <mxPoint x="-191" y="470" as="targetPoint" />
          </mxGeometry>
        </mxCell>
        <mxCell id="-JNlNa9qQTR6GLERmXfT-16" style="edgeStyle=orthogonalEdgeStyle;rounded=0;orthogonalLoop=1;jettySize=auto;html=1;exitX=0.5;exitY=1;exitDx=0;exitDy=0;endArrow=ERmany;endFill=0;entryX=0.25;entryY=0;entryDx=0;entryDy=0;" parent="1" source="-JNlNa9qQTR6GLERmXfT-17" target="sVp0VOFVsgvg84K55iOe-108" edge="1">
          <mxGeometry relative="1" as="geometry">
            <mxPoint x="-910" y="920" as="targetPoint" />
          </mxGeometry>
        </mxCell>
        <mxCell id="-JNlNa9qQTR6GLERmXfT-17" value="Have" style="shape=rhombus;perimeter=rhombusPerimeter;whiteSpace=wrap;html=1;align=center;" parent="1" vertex="1">
          <mxGeometry x="-460" y="870" width="120" height="60" as="geometry" />
        </mxCell>
        <mxCell id="-JNlNa9qQTR6GLERmXfT-18" style="edgeStyle=orthogonalEdgeStyle;rounded=0;orthogonalLoop=1;jettySize=auto;html=1;exitX=0.5;exitY=0;exitDx=0;exitDy=0;entryX=0.25;entryY=1;entryDx=0;entryDy=0;endArrow=ERone;endFill=0;" parent="1" source="-JNlNa9qQTR6GLERmXfT-20" target="sVp0VOFVsgvg84K55iOe-38" edge="1">
          <mxGeometry relative="1" as="geometry">
            <mxPoint x="-635.6" y="430" as="targetPoint" />
          </mxGeometry>
        </mxCell>
        <mxCell id="-JNlNa9qQTR6GLERmXfT-19" style="edgeStyle=orthogonalEdgeStyle;rounded=0;orthogonalLoop=1;jettySize=auto;html=1;exitX=0.5;exitY=1;exitDx=0;exitDy=0;endArrow=ERmany;endFill=0;entryX=0.75;entryY=0;entryDx=0;entryDy=0;" parent="1" source="-JNlNa9qQTR6GLERmXfT-20" target="ZiRbrHKVVSvvuvjTJfd7-22" edge="1">
          <mxGeometry relative="1" as="geometry">
            <mxPoint x="-490.6" y="1410" as="targetPoint" />
          </mxGeometry>
        </mxCell>
        <mxCell id="-JNlNa9qQTR6GLERmXfT-20" value="Have" style="shape=rhombus;perimeter=rhombusPerimeter;whiteSpace=wrap;html=1;align=center;" parent="1" vertex="1">
          <mxGeometry x="-880" y="850" width="120" height="60" as="geometry" />
        </mxCell>
        <mxCell id="-JNlNa9qQTR6GLERmXfT-21" style="edgeStyle=orthogonalEdgeStyle;rounded=0;orthogonalLoop=1;jettySize=auto;html=1;exitX=0.5;exitY=1;exitDx=0;exitDy=0;entryX=0.5;entryY=0;entryDx=0;entryDy=0;endArrow=ERone;endFill=0;" parent="1" source="-JNlNa9qQTR6GLERmXfT-23" target="sVp0VOFVsgvg84K55iOe-94" edge="1">
          <mxGeometry relative="1" as="geometry">
            <mxPoint x="392" y="1065" as="targetPoint" />
          </mxGeometry>
        </mxCell>
        <mxCell id="-JNlNa9qQTR6GLERmXfT-22" style="edgeStyle=orthogonalEdgeStyle;rounded=0;orthogonalLoop=1;jettySize=auto;html=1;exitX=0.5;exitY=0;exitDx=0;exitDy=0;endArrow=ERmany;endFill=0;entryX=1;entryY=0.75;entryDx=0;entryDy=0;" parent="1" source="-JNlNa9qQTR6GLERmXfT-23" target="sVp0VOFVsgvg84K55iOe-38" edge="1">
          <mxGeometry relative="1" as="geometry">
            <mxPoint x="-70" y="560" as="targetPoint" />
          </mxGeometry>
        </mxCell>
        <mxCell id="-JNlNa9qQTR6GLERmXfT-23" value="Give" style="shape=rhombus;perimeter=rhombusPerimeter;whiteSpace=wrap;html=1;align=center;" parent="1" vertex="1">
          <mxGeometry x="400" y="1010" width="120" height="60" as="geometry" />
        </mxCell>
        <mxCell id="-JNlNa9qQTR6GLERmXfT-24" style="edgeStyle=orthogonalEdgeStyle;rounded=0;orthogonalLoop=1;jettySize=auto;html=1;exitX=1;exitY=0.5;exitDx=0;exitDy=0;endArrow=ERmany;endFill=0;entryX=0.5;entryY=1;entryDx=0;entryDy=0;" parent="1" source="-JNlNa9qQTR6GLERmXfT-25" target="ZiRbrHKVVSvvuvjTJfd7-43" edge="1">
          <mxGeometry relative="1" as="geometry">
            <mxPoint x="399.4000000000001" y="330" as="sourcePoint" />
            <mxPoint x="719" y="250" as="targetPoint" />
          </mxGeometry>
        </mxCell>
        <mxCell id="-JNlNa9qQTR6GLERmXfT-25" value="Host" style="shape=rhombus;perimeter=rhombusPerimeter;whiteSpace=wrap;html=1;align=center;" parent="1" vertex="1">
          <mxGeometry x="480.0000000000001" y="345" width="120" height="60" as="geometry" />
        </mxCell>
        <mxCell id="-JNlNa9qQTR6GLERmXfT-26" style="edgeStyle=orthogonalEdgeStyle;rounded=0;orthogonalLoop=1;jettySize=auto;html=1;exitX=0;exitY=0.5;exitDx=0;exitDy=0;endArrow=ERone;endFill=0;entryX=1;entryY=0.5;entryDx=0;entryDy=0;" parent="1" source="-JNlNa9qQTR6GLERmXfT-25" target="sVp0VOFVsgvg84K55iOe-38" edge="1">
          <mxGeometry relative="1" as="geometry">
            <mxPoint x="279.4000000000001" y="331" as="sourcePoint" />
            <mxPoint x="-278.5999999999999" y="539" as="targetPoint" />
          </mxGeometry>
        </mxCell>
        <mxCell id="-JNlNa9qQTR6GLERmXfT-29" style="edgeStyle=orthogonalEdgeStyle;rounded=0;orthogonalLoop=1;jettySize=auto;html=1;exitX=0.5;exitY=1;exitDx=0;exitDy=0;entryX=1;entryY=0.25;entryDx=0;entryDy=0;endArrow=ERone;endFill=0;" parent="1" source="-JNlNa9qQTR6GLERmXfT-31" target="sVp0VOFVsgvg84K55iOe-38" edge="1">
          <mxGeometry relative="1" as="geometry">
            <mxPoint x="4" y="471" as="targetPoint" />
          </mxGeometry>
        </mxCell>
        <mxCell id="-JNlNa9qQTR6GLERmXfT-30" style="edgeStyle=orthogonalEdgeStyle;rounded=0;orthogonalLoop=1;jettySize=auto;html=1;exitX=0.5;exitY=0;exitDx=0;exitDy=0;entryX=0.5;entryY=1;entryDx=0;entryDy=0;endArrow=ERmany;endFill=0;" parent="1" source="-JNlNa9qQTR6GLERmXfT-31" target="ZiRbrHKVVSvvuvjTJfd7-29" edge="1">
          <mxGeometry relative="1" as="geometry">
            <mxPoint x="5" y="-250" as="targetPoint" />
          </mxGeometry>
        </mxCell>
        <mxCell id="-JNlNa9qQTR6GLERmXfT-31" value="Offer" style="shape=rhombus;perimeter=rhombusPerimeter;whiteSpace=wrap;html=1;align=center;" parent="1" vertex="1">
          <mxGeometry x="-55" y="-119" width="120" height="60" as="geometry" />
        </mxCell>
        <mxCell id="-JNlNa9qQTR6GLERmXfT-33" style="edgeStyle=orthogonalEdgeStyle;rounded=0;orthogonalLoop=1;jettySize=auto;html=1;exitX=0.5;exitY=1;exitDx=0;exitDy=0;endArrow=ERmany;endFill=0;entryX=0;entryY=0.5;entryDx=0;entryDy=0;" parent="1" source="-JNlNa9qQTR6GLERmXfT-35" target="sVp0VOFVsgvg84K55iOe-38" edge="1">
          <mxGeometry relative="1" as="geometry">
            <mxPoint x="-384.2800000000002" y="10" as="targetPoint" />
          </mxGeometry>
        </mxCell>
        <mxCell id="-JNlNa9qQTR6GLERmXfT-34" style="edgeStyle=orthogonalEdgeStyle;rounded=0;orthogonalLoop=1;jettySize=auto;html=1;exitX=0;exitY=0.5;exitDx=0;exitDy=0;entryX=1;entryY=0.5;entryDx=0;entryDy=0;endArrow=ERmany;endFill=0;" parent="1" source="-JNlNa9qQTR6GLERmXfT-35" target="ZiRbrHKVVSvvuvjTJfd7-48" edge="1">
          <mxGeometry relative="1" as="geometry">
            <mxPoint x="-856.2800000000002" y="-440" as="targetPoint" />
          </mxGeometry>
        </mxCell>
        <mxCell id="-JNlNa9qQTR6GLERmXfT-35" value="Offer" style="shape=rhombus;perimeter=rhombusPerimeter;whiteSpace=wrap;html=1;align=center;" parent="1" vertex="1">
          <mxGeometry x="-841.0000000000002" y="-460" width="120" height="60" as="geometry" />
        </mxCell>
        <mxCell id="-JNlNa9qQTR6GLERmXfT-57" style="edgeStyle=orthogonalEdgeStyle;rounded=0;orthogonalLoop=1;jettySize=auto;html=1;exitX=0.5;exitY=1;exitDx=0;exitDy=0;entryX=1;entryY=0.75;entryDx=0;entryDy=0;endArrow=ERmany;endFill=0;" parent="1" source="-JNlNa9qQTR6GLERmXfT-51" target="sVp0VOFVsgvg84K55iOe-7" edge="1">
          <mxGeometry relative="1" as="geometry" />
        </mxCell>
        <mxCell id="-JNlNa9qQTR6GLERmXfT-58" style="edgeStyle=orthogonalEdgeStyle;rounded=0;orthogonalLoop=1;jettySize=auto;html=1;exitX=0.5;exitY=0;exitDx=0;exitDy=0;entryX=0.5;entryY=1;entryDx=0;entryDy=0;endArrow=ERmany;endFill=0;" parent="1" source="-JNlNa9qQTR6GLERmXfT-51" target="ZiRbrHKVVSvvuvjTJfd7-48" edge="1">
          <mxGeometry relative="1" as="geometry" />
        </mxCell>
        <mxCell id="-JNlNa9qQTR6GLERmXfT-51" value="&lt;font style=&quot;font-size: 20px;&quot;&gt;Have&lt;/font&gt;" style="rhombus;whiteSpace=wrap;html=1;" parent="1" vertex="1">
          <mxGeometry x="-1442" y="-135" width="95" height="105" as="geometry" />
        </mxCell>
        <mxCell id="-JNlNa9qQTR6GLERmXfT-60" style="edgeStyle=orthogonalEdgeStyle;rounded=0;orthogonalLoop=1;jettySize=auto;html=1;exitX=1;exitY=0.5;exitDx=0;exitDy=0;entryX=0;entryY=0.5;entryDx=0;entryDy=0;endArrow=ERone;endFill=0;" parent="1" source="-JNlNa9qQTR6GLERmXfT-59" target="sVp0VOFVsgvg84K55iOe-7" edge="1">
          <mxGeometry relative="1" as="geometry" />
        </mxCell>
        <mxCell id="-JNlNa9qQTR6GLERmXfT-61" style="edgeStyle=orthogonalEdgeStyle;rounded=0;orthogonalLoop=1;jettySize=auto;html=1;exitX=0;exitY=0.5;exitDx=0;exitDy=0;entryX=0;entryY=0.5;entryDx=0;entryDy=0;endArrow=ERmany;endFill=0;" parent="1" source="-JNlNa9qQTR6GLERmXfT-59" target="sVp0VOFVsgvg84K55iOe-108" edge="1">
          <mxGeometry relative="1" as="geometry" />
        </mxCell>
        <mxCell id="-JNlNa9qQTR6GLERmXfT-59" value="&lt;font style=&quot;font-size: 15px;&quot;&gt;Have&lt;/font&gt;" style="rhombus;whiteSpace=wrap;html=1;rotation=-90;" parent="1" vertex="1">
          <mxGeometry x="-2990" y="947.5" width="56.75" height="62.5" as="geometry" />
        </mxCell>
        <mxCell id="-JNlNa9qQTR6GLERmXfT-65" style="edgeStyle=orthogonalEdgeStyle;rounded=0;orthogonalLoop=1;jettySize=auto;html=1;exitX=1;exitY=0.5;exitDx=0;exitDy=0;entryX=0;entryY=0.5;entryDx=0;entryDy=0;endArrow=ERmany;endFill=0;" parent="1" source="-JNlNa9qQTR6GLERmXfT-62" target="sVp0VOFVsgvg84K55iOe-135" edge="1">
          <mxGeometry relative="1" as="geometry" />
        </mxCell>
        <mxCell id="-JNlNa9qQTR6GLERmXfT-66" style="edgeStyle=orthogonalEdgeStyle;rounded=0;orthogonalLoop=1;jettySize=auto;html=1;exitX=0;exitY=0.5;exitDx=0;exitDy=0;entryX=1;entryY=0.5;entryDx=0;entryDy=0;endArrow=ERone;endFill=0;" parent="1" source="-JNlNa9qQTR6GLERmXfT-62" target="sVp0VOFVsgvg84K55iOe-108" edge="1">
          <mxGeometry relative="1" as="geometry" />
        </mxCell>
        <mxCell id="-JNlNa9qQTR6GLERmXfT-62" value="&lt;font style=&quot;font-size: 20px;&quot;&gt;Have&lt;/font&gt;" style="rhombus;whiteSpace=wrap;html=1;" parent="1" vertex="1">
          <mxGeometry x="300" y="1858" width="95" height="105" as="geometry" />
        </mxCell>
        <mxCell id="-JNlNa9qQTR6GLERmXfT-72" style="edgeStyle=orthogonalEdgeStyle;rounded=0;orthogonalLoop=1;jettySize=auto;html=1;exitX=0.5;exitY=1;exitDx=0;exitDy=0;entryX=0;entryY=0.75;entryDx=0;entryDy=0;endArrow=ERone;endFill=0;" parent="1" source="-JNlNa9qQTR6GLERmXfT-70" target="sVp0VOFVsgvg84K55iOe-108" edge="1">
          <mxGeometry relative="1" as="geometry" />
        </mxCell>
        <mxCell id="-JNlNa9qQTR6GLERmXfT-73" style="edgeStyle=orthogonalEdgeStyle;rounded=0;orthogonalLoop=1;jettySize=auto;html=1;exitX=0.5;exitY=0;exitDx=0;exitDy=0;entryX=0.5;entryY=0;entryDx=0;entryDy=0;endArrow=ERone;endFill=0;" parent="1" source="-JNlNa9qQTR6GLERmXfT-70" target="ZiRbrHKVVSvvuvjTJfd7-49" edge="1">
          <mxGeometry relative="1" as="geometry" />
        </mxCell>
        <mxCell id="-JNlNa9qQTR6GLERmXfT-70" value="&lt;font style=&quot;font-size: 20px;&quot;&gt;Have&lt;/font&gt;" style="rhombus;whiteSpace=wrap;html=1;rotation=-140;" parent="1" vertex="1">
          <mxGeometry x="-721" y="2050" width="75" height="70" as="geometry" />
        </mxCell>
        <mxCell id="-JNlNa9qQTR6GLERmXfT-78" style="edgeStyle=orthogonalEdgeStyle;rounded=0;orthogonalLoop=1;jettySize=auto;html=1;exitX=1;exitY=0.5;exitDx=0;exitDy=0;entryX=0;entryY=0;entryDx=0;entryDy=0;endArrow=ERone;endFill=0;" parent="1" source="-JNlNa9qQTR6GLERmXfT-77" target="sVp0VOFVsgvg84K55iOe-108" edge="1">
          <mxGeometry relative="1" as="geometry" />
        </mxCell>
        <mxCell id="-JNlNa9qQTR6GLERmXfT-79" style="edgeStyle=orthogonalEdgeStyle;rounded=0;orthogonalLoop=1;jettySize=auto;html=1;exitX=0;exitY=0.5;exitDx=0;exitDy=0;entryX=1;entryY=0.5;entryDx=0;entryDy=0;endArrow=ERone;endFill=0;" parent="1" source="-JNlNa9qQTR6GLERmXfT-77" target="ZiRbrHKVVSvvuvjTJfd7-10" edge="1">
          <mxGeometry relative="1" as="geometry" />
        </mxCell>
        <mxCell id="-JNlNa9qQTR6GLERmXfT-77" value="&lt;font style=&quot;font-size: 20px;&quot;&gt;Have&lt;/font&gt;" style="rhombus;whiteSpace=wrap;html=1;" parent="1" vertex="1">
          <mxGeometry x="-930" y="1542.5" width="95" height="105" as="geometry" />
        </mxCell>
      </root>
    </mxGraphModel>
  </diagram>
</mxfile>
